PathFileType	4	(X/Y/Z)	69_1_43_p0_0-293_filt_butterworth.trc
DataRate	CameraRate	NumFrames	NumMarkers	Units	OrigDataRate	OrigDataStartFrame	OrigNumFrames
59.0	59.0	5	27	m	59.0	219	293
Frame#	Time	RHip			RKnee			RAnkle			RBigToe			RSmallToe			RHeel			LHip			LKnee			LAnkle			LBigToe			LSmallToe			LHeel			Neck			Head			Nose			RShoulder			RElbow			RWrist			RThumb			RIndex			RPinky			LShoulder			LElbow			LWrist			LThumb			LIndex			LPinky			
		X1	Y1	Z1	X2	Y2	Z2	X3	Y3	Z3	X4	Y4	Z4	X5	Y5	Z5	X6	Y6	Z6	X7	Y7	Z7	X8	Y8	Z8	X9	Y9	Z9	X10	Y10	Z10	X11	Y11	Z11	X12	Y12	Z12	X13	Y13	Z13	X14	Y14	Z14	X15	Y15	Z15	X16	Y16	Z16	X17	Y17	Z17	X18	Y18	Z18	X19	Y19	Z19	X20	Y20	Z20	X21	Y21	Z21	X22	Y22	Z22	X23	Y23	Z23	X24	Y24	Z24	X25	Y25	Z25	X26	Y26	Z26	X27	Y27	Z27	
219	3.711864406779661	0.2874117702872907	0.8780995249952378	0.6048347969693167	0.2505677630383737	0.44274070787588177	0.5920661003668133	0.22267603508182285	0.06257512966134868	0.5659107108624007	0.24710810453239918	0.017308354679121236	0.47160104280810866	0.30922777581157634	0.04366097192998685	0.4835482336738367	0.17255124727127102	-0.006473372242199356	0.6411526558190843	0.10685642037797595	0.8878267780503519	0.517120951198282	0.05873858417830698	0.46132214069717137	0.5325904955555343	0.03115998518458464	0.03792987145851743	0.5648780504689563	0.12351196352125288	0.05776375159005781	0.38199943745573384	0.0774555233828411	0.07626255039872629	0.38260961983823144	0.034405808968015664	-0.01898605847192008	0.590946480104562	0.22626500557283066	1.3801976101181535	0.5598670361388187	0.2512329362742333	1.6296166216397119	0.5408920908654106	0.2669754527366824	1.4990605092944733	0.469575823205872	0.3644505035023603	1.3004209836971836	0.5857339250461583	0.3975297521410315	1.039962409043347	0.6017360513130212	0.445789027638651	0.8361050010752222	0.5041293737169239	0.43745056097032564	0.708433733775415	0.48923201071601197	0.460473232258082	0.6777264953690315	0.4730725643584267	0.4765143510033322	0.6911583488671899	0.5705462195081925	0.07102986927386809	1.3149805366922172	0.5060063838350373	0.03944708283631067	1.0726360401750141	0.4576360487445483	0.024207306187520674	0.8721446177302041	0.3938432945330281	0.047176491893044084	0.7693206056358001	0.3426328364401796	0.0334484829177666	0.7512007701253722	0.3290255519613352	-0.03018642147143099	0.7436708374846557	0.3808238840331449	
220	3.7288135593220337	0.28876260716833774	0.8775683818244708	0.6029803954799445	0.2502667975820391	0.44218743716146963	0.5908969873737197	0.22282543405971492	0.06266080910389975	0.5644929790576431	0.2471388392220885	0.016004903692500138	0.47208484032709247	0.30926340999876356	0.042891592837773045	0.48319510910659663	0.17324362274700156	-0.0059517133094858996	0.6403314826625782	0.10800768230154553	0.8875734265652725	0.5157180258193035	0.05940571847293461	0.46148348314263843	0.5319121368241541	0.03186930058360993	0.03837708559212034	0.5627777700374164	0.12551729196111308	0.06062308493272326	0.3777071884452774	0.07850818163069959	0.07628429221594557	0.38126208717300847	0.034392357797168774	-0.019356334381362167	0.5903509777781565	0.22631720754354734	1.3809164066162074	0.5599416058060561	0.2512494115244299	1.630751908065282	0.541139655500737	0.2672493414279239	1.5012529411627118	0.4686632685736839	0.36440750316580306	1.301049788975142	0.5858723357977329	0.39734864235119804	1.0392827166304692	0.5998150108430232	0.44446924077495376	0.8348264076369356	0.5096931861037056	0.4388478260940574	0.7100833256709728	0.49032529366935085	0.4602594196146269	0.6797932158235943	0.4791727814737724	0.47598801786654166	0.690542010794192	0.5836887669092218	0.0710743868844356	1.3153048085495211	0.5060344642636884	0.03909239341547261	1.0726738826647435	0.4572114733206532	0.024374566311734923	0.8729991801360787	0.38837244186553355	0.044654608993421135	0.7666935150764941	0.342919931254475	0.03147585633013671	0.7502525523022305	0.33080987895866687	-0.03511852676421894	0.7419913338459103	0.3834597793756405	
221	3.745762711864407	0.2901433854373338	0.8774520477983521	0.6006245642556314	0.25005741017903926	0.44198365218591373	0.5896453820448748	0.22279024474745435	0.06243841397562172	0.5636646477745044	0.24720758356646327	0.014659348307736443	0.4726796335100363	0.30948186036801817	0.042131060550765834	0.48294347865727993	0.1738032476569833	-0.005635927416915612	0.6397650033134556	0.10892743633281772	0.8873615165752964	0.5141480496611159	0.059921259640931895	0.46140571348076564	0.5313588697238181	0.032451983618433315	0.038726793496391174	0.561081995220624	0.12696090809736765	0.06318643030546202	0.3730375507753351	0.07889879213073997	0.07567470558554149	0.3806556933430201	0.03432127633527538	-0.019818106062361472	0.5901680990478396	0.22635403846382313	1.3816517034560236	0.5600277234202129	0.2511964778198632	1.6315284562398757	0.5412411415837441	0.2675016942967908	1.5030501193051384	0.46682285834154347	0.3643810701293542	1.3013878907810723	0.5859581348676067	0.39757249445939474	1.039214516788073	0.5976551406658572	0.44262042245793787	0.8339216662130753	0.5149440452244761	0.4392616581192934	0.7120705417847234	0.4911668522899465	0.4591794071266091	0.6825520402999586	0.4859395832300236	0.47499038934536075	0.6902335782845227	0.5931313170820471	0.0710599380135023	1.3154500529953084	0.506053942700409	0.038704140430986377	1.0727232403127154	0.4572877629398401	0.024871790914330887	0.8735829155732958	0.3831135740270286	0.041781295426630366	0.7637136631322687	0.3446383889204933	0.02891584980037083	0.7491849920684988	0.3331353082231667	-0.04017401716061704	0.7395792529554247	0.38620955244556965	
222	3.76271186440678	0.2915495700211966	0.8777937072604362	0.5976814072542677	0.24988369964768042	0.44221739457088705	0.5883862710672766	0.22255521795063438	0.0619266587809843	0.5637189576924404	0.24727784544559744	0.013563275277841149	0.47318175789697553	0.30970976323320953	0.041556470668129786	0.4827630331412371	0.17418872754476938	-0.005531592030480578	0.639492623006014	0.10972486343715547	0.8873266407457039	0.5123461290196131	0.06028689938909434	0.46116888579687165	0.5309417276023916	0.03283795012663073	0.038823249492070194	0.5601702481402083	0.1276300068399544	0.0651001172008727	0.36860766370309045	0.07885589047631938	0.07473313708569036	0.3805497616757001	0.03420613722219362	-0.020304791313614207	0.590424505086178	0.22636851628557403	1.382350870286915	0.5601129891803592	0.2511831226983245	1.631867311758668	0.5413052685459149	0.26779871391214666	1.504464648203843	0.464396979340447	0.3643757816553297	1.3014586426970767	0.5859708440027767	0.3976148432905588	1.0397857929322434	0.5954733437528891	0.44044896705159586	0.8336050576554159	0.518712468600167	0.43901103283270576	0.7138844755903194	0.4920870650422853	0.45723312531875304	0.6855583694255447	0.4922314161521085	0.4734169751928448	0.6896484645649894	0.6000089950301707	0.0710427594329567	1.3154521767981024	0.5060593930781216	0.03843248022498656	1.0727812819898834	0.4574830013562075	0.025397163016899614	0.8739440072303696	0.37882183901550043	0.039163357533454124	0.761109483674017	0.3466954241436816	0.026368061915419495	0.748367535866001	0.33480614536957604	-0.044765148971509905	0.7370945097619443	0.38843453367073966	
223	3.7796610169491527	0.2930684291891087	0.8785119824078785	0.5940309704595748	0.24968009259801677	0.44289250567405947	0.5871173798919198	0.22211214821911884	0.061159414470298504	0.5647440317008072	0.24732094488169198	0.012943731065324648	0.4734101446402764	0.3098522133512355	0.04130676389600682	0.4826306384779018	0.17427898037548586	-0.005677372636748737	0.6396474391244225	0.1104954128225955	0.8875347748915725	0.5103652401898138	0.06054621697082829	0.46096780981866914	0.5306652969657444	0.0330177365178444	0.038634118451371754	0.5601753237486604	0.12765889834249727	0.0663154659315626	0.3648532389876755	0.07872922153436766	0.07385306431374268	0.3805622620268321	0.03406673288093555	-0.020739641081348414	0.5910513250962036	0.22636594211625255	1.382996362634895	0.5601913755950768	0.25120295317991137	1.631844022444877	0.5413540055472416	0.26812115461133185	1.5056054966581616	0.46172329395726647	0.3643879436400911	1.3013934038773542	0.585929520431894	0.39703503067639906	1.040785657033163	0.5935044713101498	0.4382801857583381	0.833753917981742	0.5202191850309592	0.43816837106512085	0.7149385575950429	0.49347058986828873	0.4545560351753015	0.6878995097714417	0.4971747410762743	0.4708919599298493	0.6886215195258273	0.604907025940948	0.07103887701114985	1.3153913293464266	0.5060565900405408	0.03832859376797382	1.0728281731130844	0.4575663929816334	0.02578069105280992	0.8741585581427869	0.37588413892257233	0.03736153423440048	0.7594354853801281	0.34827526827074856	0.024489938862292594	0.748034483538924	0.33517142538688455	-0.04839492637607648	0.7351765079695156	0.38970493077130314	
